<?xml version="1.0" encoding="utf-8"?>
<!-- Generator: Adobe Illustrator 28.4.1, SVG Export Plug-In . SVG Version: 6.00 Build 0)  -->
<svg version="1.1" id="Layer_1" xmlns="http://www.w3.org/2000/svg" xmlns:xlink="http://www.w3.org/1999/xlink" x="0px" y="0px"
	 viewBox="0 0 1000 1000" style="enable-background:new 0 0 1000 1000;" xml:space="preserve">
<style type="text/css">
	.st0{fill:#15141A;}
	.st1{fill:#B9EF46;}
	.st2{fill:#FFFFFF;}
</style>
<g>
	<g>
		<path class="st0" d="M382.9,521.2c1.8,2.4,2.8,5.4,2.8,8.9c0,5-1.9,8.8-5.8,11.5c-3.9,2.7-9.5,4-17,4h-29.5v-57h27.9
			c7,0,12.3,1.3,16,4c3.7,2.7,5.6,6.3,5.6,10.8c0,2.8-0.7,5.2-2,7.4c-1.3,2.2-3.2,3.9-5.6,5.1C378.5,517.1,381,518.8,382.9,521.2z
			 M346.5,498.6V512h13.1c3.3,0,5.7-0.6,7.4-1.7c1.7-1.1,2.5-2.8,2.5-5.1c0-2.2-0.8-3.9-2.5-5c-1.7-1.1-4.2-1.7-7.4-1.7H346.5z
			 M369.7,534c1.8-1.1,2.6-2.9,2.6-5.3c0-4.7-3.5-7.1-10.5-7.1h-15.4v14.1h15.4C365.3,535.7,368,535.2,369.7,534z"/>
		<path class="st0" d="M394.8,485.2h12.7v60.4h-12.7V485.2z"/>
		<path class="st0" d="M452.6,506c3.6,3.2,5.5,8.1,5.5,14.6v25h-11.9v-5.5c-2.4,4.1-6.8,6.1-13.4,6.1c-3.4,0-6.3-0.6-8.8-1.7
			c-2.5-1.1-4.4-2.7-5.7-4.7c-1.3-2-2-4.3-2-6.8c0-4.1,1.5-7.3,4.6-9.6c3.1-2.3,7.8-3.5,14.2-3.5h10.1c0-2.8-0.8-4.9-2.5-6.4
			c-1.7-1.5-4.2-2.2-7.6-2.2c-2.3,0-4.6,0.4-6.9,1.1c-2.3,0.7-4.2,1.7-5.7,3l-4.6-8.9c2.4-1.7,5.3-3,8.6-3.9
			c3.3-0.9,6.8-1.4,10.3-1.4C443.7,501.2,449,502.8,452.6,506z M441.8,536.3c1.7-1,2.9-2.5,3.6-4.4v-4.5h-8.7
			c-5.2,0-7.8,1.7-7.8,5.1c0,1.6,0.6,2.9,1.9,3.9c1.3,1,3,1.4,5.3,1.4C438.2,537.8,440.1,537.3,441.8,536.3z"/>
		<path class="st0" d="M478.6,543.4c-3.7-1.9-6.6-4.6-8.7-8c-2.1-3.4-3.1-7.3-3.1-11.6c0-4.3,1-8.2,3.1-11.6c2.1-3.4,5-6.1,8.7-8
			c3.7-1.9,7.9-2.9,12.6-2.9c4.6,0,8.6,1,12.1,2.9c3.4,1.9,6,4.7,7.5,8.3l-9.9,5.3c-2.3-4-5.6-6-9.9-6c-3.3,0-6.1,1.1-8.2,3.3
			c-2.2,2.2-3.3,5.1-3.3,8.9c0,3.7,1.1,6.7,3.3,8.9c2.2,2.2,4.9,3.3,8.2,3.3c4.3,0,7.6-2,9.9-6l9.9,5.4c-1.6,3.5-4.1,6.2-7.5,8.1
			c-3.4,2-7.5,2.9-12.1,2.9C486.5,546.3,482.3,545.4,478.6,543.4z"/>
		<path class="st0" d="M536.7,528.5l-6.1,6v11.2h-12.7v-60.4h12.7v34.2l18.6-17.6h15.2L546,520.4l19.9,25.3h-15.4L536.7,528.5z"/>
		<path class="st0" d="M624.4,545.7l-0.1-34.2l-16.8,28.2h-5.9l-16.7-27.5v33.5h-12.4v-57h10.9l21.3,35.4l21-35.4h10.8l0.2,57H624.4
			z"/>
		<path class="st0" d="M657.8,543.4c-3.7-1.9-6.5-4.6-8.6-8c-2.1-3.4-3.1-7.3-3.1-11.6c0-4.3,1-8.2,3.1-11.6c2.1-3.4,4.9-6.1,8.6-8
			c3.7-1.9,7.8-2.9,12.4-2.9c4.6,0,8.7,1,12.4,2.9c3.6,1.9,6.5,4.6,8.6,8c2.1,3.4,3.1,7.3,3.1,11.6c0,4.3-1,8.2-3.1,11.6
			c-2.1,3.4-4.9,6.1-8.6,8c-3.6,1.9-7.8,2.9-12.4,2.9C665.6,546.3,661.5,545.4,657.8,543.4z M678.3,532.6c2.1-2.2,3.1-5.1,3.1-8.8
			c0-3.7-1-6.6-3.1-8.8c-2.1-2.2-4.8-3.3-8-3.3s-5.9,1.1-8.1,3.3c-2.1,2.2-3.2,5.1-3.2,8.8c0,3.7,1.1,6.6,3.2,8.8
			c2.1,2.2,4.8,3.3,8.1,3.3S676.2,534.8,678.3,532.6z"/>
		<path class="st0" d="M742.5,506.1c3.3,3.3,5,8.1,5,14.5v25.1h-12.7v-23.1c0-3.5-0.8-6.1-2.3-7.8c-1.5-1.7-3.7-2.6-6.6-2.6
			c-3.2,0-5.8,1-7.7,3c-1.9,2-2.9,4.9-2.9,8.8v21.7h-12.7v-43.8h12.1v5.1c1.7-1.8,3.8-3.3,6.3-4.3c2.5-1,5.2-1.5,8.2-1.5
			C734.8,501.2,739.2,502.8,742.5,506.1z"/>
		<path class="st0" d="M777.8,528.5l-6.1,6v11.2H759v-60.4h12.7v34.2l18.6-17.6h15.2l-18.2,18.6l19.9,25.3h-15.4L777.8,528.5z"/>
	</g>
	<g>
		<path class="st1" d="M299.3,476.7l-19.5-11.3v-15.6c0-6.4-3.4-12.3-9-15.5l-25.5-14.7c-5.5-3.2-12.4-3.2-17.9,0l-25.5,14.7
			c-5.5,3.2-9,9.1-9,15.5v48c0,0,0,0,0,0v40.2c0,8.7,4.7,16.8,12.2,21.2l34.8,20.1c7.6,4.4,16.9,4.4,24.5,0l34.8-20.1
			c7.6-4.4,12.2-12.4,12.2-21.2v-40.2C311.5,489.2,306.9,481.1,299.3,476.7z"/>
		<g>
			<path class="st0" d="M249.7,533.6c-20.7,0-37.5-11.4-37.5,1.5c0,10.7,16.8,19.3,37.5,19.3s37.5-8.7,37.5-19.3
				C287.1,521,270.4,533.6,249.7,533.6z"/>
			<path class="st0" d="M228.8,513.4c17.6-8.4,25.2-16.6,29.6-23.5c1.5-2.1,0.6-6,1.2-8.6c0,0,0.1,0,0.1,0c1.3,0.1,1.8-1.5,2-3.6
				c0.2-2.2,0.2-4-1.1-4.2c-0.3,0-0.5,0-0.8,0.1c0-0.1,0-0.2-0.1-0.3c-1.3-6.1-3.2-10.3-9.7-10.3c-6.2,0-8.4,4.2-9.5,10.3
				c0,0.1,0,0.2,0,0.2c-0.2-0.1-0.5-0.1-0.7-0.1c-1.3,0.1-1.1,2-0.9,4.2c0.2,2.2,0.4,3.8,1.7,3.7c0,0,0.7,3.6,1.9,5.5l-8.5,3.5
				c-2.3,0.8-4.2,2.4-5.4,4.5l-6.6,11.2c0,0,0,0.1-0.1,0.1C219.3,510.5,224.2,515.6,228.8,513.4z"/>
			<path class="st0" d="M228.5,520.1c-1.3,0.4-1.2,2.2,0.1,2.5l0,0l5.9,1.5c9.5,2.3,19.4,2.4,28.8,0.1l4.3-1c4-0.9,7.4-3.5,9.5-7.1
				c1.8-3.2,1.6-7.2-0.3-10.3c-0.5-0.8-4.3-7.3-5-8.5l-1.5-2.6c-0.4-0.7-0.9-1.4-1.5-2c-1-1-2.8-0.9-3.6,0.3
				C253,509.8,238,517,228.5,520.1z"/>
		</g>
	</g>
</g>
</svg>
