<svg width="615" height="166" viewBox="0 0 615 166" fill="none" xmlns="http://www.w3.org/2000/svg">
<path d="M190 104C191.8 106.4 192.8 109.4 192.8 112.9C192.8 117.9 190.9 121.7 187 124.4C183.1 127.1 177.5 128.4 170 128.4H140.5V71.3999H168.4C175.4 71.3999 180.7 72.6999 184.4 75.3999C188.1 78.0999 190 81.6999 190 86.1999C190 88.9999 189.3 91.3999 188 93.5999C186.7 95.7999 184.8 97.4999 182.4 98.6999C185.6 99.8999 188.1 101.6 190 104ZM153.6 81.3999V94.7999H166.7C170 94.7999 172.4 94.1999 174.1 93.0999C175.8 91.9999 176.6 90.2999 176.6 87.9999C176.6 85.7999 175.8 84.0999 174.1 82.9999C172.4 81.8999 169.9 81.2999 166.7 81.2999H153.6V81.3999ZM176.8 116.8C178.6 115.7 179.4 113.9 179.4 111.5C179.4 106.8 175.9 104.4 168.9 104.4H153.5V118.5H168.9C172.4 118.5 175.1 118 176.8 116.8Z" fill="white"/>
<path d="M201.9 68H214.6V128.4H201.9V68Z" fill="white"/>
<path d="M259.7 88.8C263.3 92 265.2 96.9 265.2 103.4V128.4H253.3V122.9C250.9 127 246.5 129 239.9 129C236.5 129 233.6 128.4 231.1 127.3C228.6 126.2 226.7 124.6 225.4 122.6C224.1 120.6 223.4 118.3 223.4 115.8C223.4 111.7 224.9 108.5 228 106.2C231.1 103.9 235.8 102.7 242.2 102.7H252.3C252.3 99.9 251.5 97.8 249.8 96.3C248.1 94.8 245.6 94.1 242.2 94.1C239.9 94.1 237.6 94.5 235.3 95.2C233 95.9 231.1 96.9 229.6 98.2L225 89.3C227.4 87.6 230.3 86.3 233.6 85.4C236.9 84.5 240.4 84 243.9 84C250.8 84 256.1 85.6 259.7 88.8ZM248.9 119.1C250.6 118.1 251.8 116.6 252.5 114.7V110.2H243.8C238.6 110.2 236 111.9 236 115.3C236 116.9 236.6 118.2 237.9 119.2C239.2 120.2 240.9 120.6 243.2 120.6C245.3 120.6 247.2 120.1 248.9 119.1Z" fill="white"/>
<path d="M285.7 126.2C282 124.3 279.1 121.6 277 118.2C274.9 114.8 273.9 110.9 273.9 106.6C273.9 102.3 274.9 98.4001 277 95.0001C279.1 91.6001 282 88.9001 285.7 87.0001C289.4 85.1001 293.6 84.1001 298.3 84.1001C302.9 84.1001 306.9 85.1001 310.4 87.0001C313.8 88.9001 316.4 91.7001 317.9 95.3001L308 100.6C305.7 96.6001 302.4 94.6001 298.1 94.6001C294.8 94.6001 292 95.7001 289.9 97.9001C287.7 100.1 286.6 103 286.6 106.8C286.6 110.5 287.7 113.5 289.9 115.7C292.1 117.9 294.8 119 298.1 119C302.4 119 305.7 117 308 113L317.9 118.4C316.3 121.9 313.8 124.6 310.4 126.5C307 128.5 302.9 129.4 298.3 129.4C293.6 129.1 289.4 128.2 285.7 126.2Z" fill="white"/>
<path d="M343.8 111.3L337.7 117.3V128.5H325V68.1001H337.7V102.3L356.3 84.7001H371.5L353.1 103.2L373 128.5H357.6L343.8 111.3Z" fill="white"/>
<path d="M431.5 128.5L431.4 94.3L414.6 122.5H408.7L392 95V128.5H379.6V71.5H390.5L411.8 106.9L432.8 71.5H443.6L443.8 128.5H431.5Z" fill="white"/>
<path d="M464.9 126.2C461.2 124.3 458.4 121.6 456.3 118.2C454.2 114.8 453.2 110.9 453.2 106.6C453.2 102.3 454.2 98.4001 456.3 95.0001C458.4 91.6001 461.2 88.9001 464.9 87.0001C468.6 85.1001 472.7 84.1001 477.3 84.1001C481.9 84.1001 486 85.1001 489.7 87.0001C493.3 88.9001 496.2 91.6001 498.3 95.0001C500.4 98.4001 501.4 102.3 501.4 106.6C501.4 110.9 500.4 114.8 498.3 118.2C496.2 121.6 493.4 124.3 489.7 126.2C486.1 128.1 481.9 129.1 477.3 129.1C472.7 129.1 468.6 128.2 464.9 126.2ZM485.4 115.4C487.5 113.2 488.5 110.3 488.5 106.6C488.5 102.9 487.5 100 485.4 97.8001C483.3 95.6001 480.6 94.5001 477.4 94.5001C474.2 94.5001 471.5 95.6001 469.3 97.8001C467.2 100 466.1 102.9 466.1 106.6C466.1 110.3 467.2 113.2 469.3 115.4C471.4 117.6 474.1 118.7 477.4 118.7C480.7 118.7 483.3 117.6 485.4 115.4Z" fill="white"/>
<path d="M549.6 88.9C552.9 92.2 554.6 97 554.6 103.4V128.5H541.9V105.4C541.9 101.9 541.1 99.3 539.6 97.6C538.1 95.9 535.9 95 533 95C529.8 95 527.2 96 525.3 98C523.4 100 522.4 102.9 522.4 106.8V128.5H509.7V84.7H521.8V89.8C523.5 88 525.6 86.5 528.1 85.5C530.6 84.5 533.3 84 536.3 84C541.9 84 546.3 85.6 549.6 88.9Z" fill="white"/>
<path d="M584.9 111.3L578.8 117.3V128.5H566.1V68.1001H578.8V102.3L597.4 84.7001H612.6L594.4 103.3L614.3 128.6H598.9L584.9 111.3Z" fill="white"/>
<path d="M106.4 59.5L86.9 48.2V32.6C86.9 26.2 83.5 20.3 77.9 17.1L52.4 2.4C46.9 -0.8 40 -0.8 34.5 2.4L9 17.1C3.5 20.3 0 26.2 0 32.6V80.6V120.8C0 129.5 4.70001 137.6 12.2 142L47 162.1C54.6 166.5 63.9 166.5 71.5 162.1L106.3 142C113.9 137.6 118.5 129.6 118.5 120.8V80.6C118.6 72 114 63.9 106.4 59.5Z" fill="#B9EF46"/>
<path d="M56.8 116.4C36.1 116.4 19.3 105 19.3 117.9C19.3 128.6 36.1 137.2 56.8 137.2C77.5 137.2 94.3001 128.5 94.3001 117.9C94.2001 103.8 77.5 116.4 56.8 116.4Z" fill="#15141A"/>
<path d="M35.9 96.2001C53.5 87.8001 61.1 79.6 65.5 72.7C67 70.6 66.1 66.7 66.7 64.1H66.8C68.1 64.2 68.6 62.6001 68.8 60.5001C69 58.3001 69 56.5 67.7 56.3C67.4 56.3 67.2 56.3001 66.9 56.4001C66.9 56.3001 66.9 56.2 66.8 56.1C65.5 50 63.6 45.8 57.1 45.8C50.9 45.8 48.7 50 47.6 56.1C47.6 56.2 47.6 56.3 47.6 56.3C47.4 56.2 47.1 56.2 46.9 56.2C45.6 56.3 45.8 58.2001 46 60.4001C46.2 62.6001 46.4 64.2 47.7 64.1C47.7 64.1 48.4 67.7 49.6 69.6L41.1 73.1C38.8 73.9 36.9 75.5 35.7 77.6L29.1 88.8C29.1 88.8 29.1 88.9001 29 88.9001C26.4 93.3001 31.3 98.4001 35.9 96.2001Z" fill="#15141A"/>
<path d="M35.6 102.9C34.3 103.3 34.4 105.1 35.7 105.4L41.6 106.9C51.1 109.2 61 109.3 70.4 107L74.7 106C78.7 105.1 82.1 102.5 84.2 98.9001C86 95.7001 85.8 91.7002 83.9 88.6002C83.4 87.8002 79.6 81.3002 78.9 80.1002L77.4 77.5002C77 76.8002 76.5 76.1002 75.9 75.5002C74.9 74.5002 73.1 74.6002 72.3 75.8002C60.1 92.6002 45.1 99.8001 35.6 102.9Z" fill="#15141A"/>
</svg>
